<svg width="215" height="48" viewBox="0 0 232 52" fill="none" xmlns="http://www.w3.org/2000/svg">
<ellipse cx="35.952" cy="26" rx="26.368" ry="26" fill="#6201FF"/>
<line y1="-10" x2="67.6415" y2="-10" transform="matrix(0.946164 -0.323688 0.286753 0.958005 6 42.1473)" stroke="#FBBC05" stroke-width="20"/>
<path d="M95.628 40.396C94.092 40.396 92.556 40.228 91.02 39.892C89.484 39.556 88.152 39.064 87.024 38.416C86.352 38.056 85.932 37.576 85.764 36.976C85.596 36.352 85.632 35.752 85.872 35.176C86.112 34.6 86.496 34.192 87.024 33.952C87.552 33.712 88.188 33.772 88.932 34.132C89.892 34.684 90.96 35.092 92.136 35.356C93.312 35.62 94.476 35.752 95.628 35.752C97.356 35.752 98.592 35.488 99.336 34.96C100.104 34.408 100.488 33.724 100.488 32.908C100.488 32.212 100.224 31.66 99.696 31.252C99.168 30.844 98.244 30.496 96.924 30.208L92.856 29.344C88.32 28.384 86.052 26.032 86.052 22.288C86.052 20.68 86.484 19.276 87.348 18.076C88.212 16.852 89.412 15.904 90.948 15.232C92.508 14.56 94.308 14.224 96.348 14.224C97.692 14.224 99.012 14.392 100.308 14.728C101.604 15.04 102.744 15.508 103.728 16.132C104.328 16.492 104.7 16.96 104.844 17.536C104.988 18.112 104.94 18.664 104.7 19.192C104.484 19.72 104.1 20.092 103.548 20.308C103.02 20.524 102.36 20.44 101.568 20.056C100.776 19.648 99.936 19.348 99.048 19.156C98.16 18.964 97.248 18.868 96.312 18.868C94.8 18.868 93.624 19.168 92.784 19.768C91.968 20.344 91.56 21.1 91.56 22.036C91.56 22.732 91.812 23.296 92.316 23.728C92.82 24.16 93.696 24.508 94.944 24.772L99.012 25.636C103.668 26.644 105.996 28.924 105.996 32.476C105.996 34.06 105.564 35.452 104.7 36.652C103.86 37.828 102.66 38.752 101.1 39.424C99.564 40.072 97.74 40.396 95.628 40.396ZM112.427 40.324C111.515 40.324 110.819 40.072 110.339 39.568C109.859 39.064 109.619 38.356 109.619 37.444V17.464C109.619 15.568 110.567 14.62 112.463 14.62H121.211C124.043 14.62 126.227 15.34 127.763 16.78C129.299 18.196 130.067 20.176 130.067 22.72C130.067 25.264 129.299 27.256 127.763 28.696C126.227 30.136 124.043 30.856 121.211 30.856H115.199V37.444C115.199 38.356 114.959 39.064 114.479 39.568C114.023 40.072 113.339 40.324 112.427 40.324ZM115.199 26.536H120.275C123.227 26.536 124.703 25.264 124.703 22.72C124.703 20.224 123.227 18.976 120.275 18.976H115.199V26.536ZM136.369 40C135.433 40 134.725 39.76 134.245 39.28C133.765 38.776 133.525 38.068 133.525 37.156V17.392C133.525 16.48 133.765 15.784 134.245 15.304C134.725 14.8 135.421 14.548 136.333 14.548C138.181 14.548 139.105 15.496 139.105 17.392V35.284H148.753C150.361 35.284 151.165 36.064 151.165 37.624C151.165 39.208 150.361 40 148.753 40H136.369ZM156.969 40.324C156.057 40.324 155.361 40.072 154.881 39.568C154.401 39.064 154.161 38.356 154.161 37.444V17.176C154.161 15.256 155.097 14.296 156.969 14.296C158.817 14.296 159.741 15.256 159.741 17.176V37.444C159.741 39.364 158.817 40.324 156.969 40.324ZM173.705 40.324C172.793 40.324 172.097 40.072 171.617 39.568C171.137 39.064 170.897 38.356 170.897 37.444V19.228H164.525C162.965 19.228 162.185 18.46 162.185 16.924C162.185 15.388 162.965 14.62 164.525 14.62H182.849C184.409 14.62 185.189 15.388 185.189 16.924C185.189 18.46 184.409 19.228 182.849 19.228H176.477V37.444C176.477 38.356 176.237 39.064 175.757 39.568C175.301 40.072 174.617 40.324 173.705 40.324ZM190.511 40C188.567 40 187.595 39.028 187.595 37.084V17.536C187.595 15.592 188.567 14.62 190.511 14.62H203.075C204.539 14.62 205.271 15.34 205.271 16.78C205.271 18.244 204.539 18.976 203.075 18.976H192.923V24.916H202.247C203.735 24.916 204.479 25.648 204.479 27.112C204.479 28.576 203.735 29.308 202.247 29.308H192.923V35.644H203.075C204.539 35.644 205.271 36.364 205.271 37.804C205.271 39.268 204.539 40 203.075 40H190.511ZM212.308 40C210.364 40 209.392 39.028 209.392 37.084V17.536C209.392 15.592 210.364 14.62 212.308 14.62H224.872C226.336 14.62 227.068 15.34 227.068 16.78C227.068 18.244 226.336 18.976 224.872 18.976H214.72V24.916H224.044C225.532 24.916 226.276 25.648 226.276 27.112C226.276 28.576 225.532 29.308 224.044 29.308H214.72V35.644H224.872C226.336 35.644 227.068 36.364 227.068 37.804C227.068 39.268 226.336 40 224.872 40H212.308Z" fill="#6201FF"/>
</svg>
